<?xml version="1.0" standalone="no"?><!DOCTYPE svg PUBLIC "-//W3C//DTD SVG 1.1//EN" "http://www.w3.org/Graphics/SVG/1.1/DTD/svg11.dtd"><svg t="1768048450213" class="icon" viewBox="0 0 1025 1024" version="1.1" xmlns="http://www.w3.org/2000/svg" p-id="15691" xmlns:xlink="http://www.w3.org/1999/xlink" width="200.1953125" height="200"><path d="M513.28 0.512C230.796 0.512 1.534 229.773 1.534 512.256S230.797 1024 513.28 1024s511.744-229.261 511.744-511.744S796.273 0.512 513.28 0.512z m-15.865 256.384l214.933 179.11-35.822 42.987-214.933-179.11 35.822-42.987z m-82.39 116.677L668.85 491.786l-24.052 50.663-253.314-118.213 23.54-50.663z m-48.616 126.913L640.192 557.8l-11.258 54.757-273.784-57.316 11.259-54.756z m-16.888 126.4h279.924v55.78H349.521v-55.78zM741.005 794.74H237.45V570.595h55.78v167.852h391.485V570.595h55.78v224.144z m-18.422-369.48L555.754 200.604l45.034-33.264 166.828 224.656-45.033 33.263z" p-id="15692"></path></svg>